<?xml version="1.0" encoding="UTF-8" standalone="no"?>
<!-- Created with Inkscape (http://www.inkscape.org/) -->

<svg
   xmlns:dc="http://purl.org/dc/elements/1.1/"
   xmlns:cc="http://creativecommons.org/ns#"
   xmlns:rdf="http://www.w3.org/1999/02/22-rdf-syntax-ns#"
   xmlns:svg="http://www.w3.org/2000/svg"
   xmlns="http://www.w3.org/2000/svg"
   xmlns:sodipodi="http://sodipodi.sourceforge.net/DTD/sodipodi-0.dtd"
   xmlns:inkscape="http://www.inkscape.org/namespaces/inkscape"
   width="1065.3882mm"
   height="174.64252mm"
   viewBox="0 0 3774.9975 618.81206"
   id="svg4406"
   version="1.1"
   inkscape:version="0.91 r13725"
   sodipodi:docname="logo-black.svg">
  <defs
     id="defs4408">
    <clipPath
       clipPathUnits="userSpaceOnUse"
       id="clipPath16">
      <path
         d="m 163.351,149.996 c -0.64,0 -1.187,-0.232 -1.64,-0.692 l 0,0 c -0.454,-0.461 -0.679,-1.016 -0.679,-1.668 l 0,0 c 0,-0.598 0.225,-1.126 0.679,-1.587 l 0,0 c 0.453,-0.461 1,-0.691 1.64,-0.691 l 0,0 37.903,0 c 0.64,0 1.187,0.23 1.64,0.691 l 0,0 c 0.453,0.461 0.68,0.989 0.68,1.587 l 0,0 c 0,0.652 -0.227,1.207 -0.68,1.668 l 0,0 c -0.453,0.46 -1,0.692 -1.64,0.692 l 0,0 -37.903,0 z m 17.181,-8.675 c -0.419,-0.455 -0.628,-0.974 -0.628,-1.56 l 0,0 0,-47.42 c 0,-0.641 0.209,-1.187 0.628,-1.64 l 0,0 c 0.418,-0.454 0.968,-0.679 1.65,-0.679 l 0,0 c 0.629,0 1.166,0.225 1.612,0.679 l 0,0 c 0.444,0.453 0.668,0.999 0.668,1.64 l 0,0 0,47.42 c 0,0.586 -0.224,1.105 -0.668,1.56 l 0,0 c -0.446,0.451 -0.983,0.678 -1.612,0.678 l 0,0 c -0.682,0 -1.232,-0.227 -1.65,-0.678"
         id="path18"
         inkscape:connector-curvature="0" />
    </clipPath>
    <clipPath
       clipPathUnits="userSpaceOnUse"
       id="clipPath38">
      <path
         d="m 214.045,149.996 c -0.639,0 -1.183,-0.227 -1.636,-0.68 l 0,0 c -0.453,-0.453 -0.679,-1 -0.679,-1.64 l 0,0 0,-55.415 c 0,-0.588 0.223,-1.107 0.667,-1.56 l 0,0 c 0.445,-0.454 0.982,-0.679 1.612,-0.679 l 0,0 c 0.576,0 1.1,0.225 1.572,0.679 l 0,0 c 0.471,0.453 0.708,0.972 0.708,1.56 l 0,0 0,16.232 19.272,0 16.472,-17.671 c 0.373,-0.535 0.906,-0.8 1.6,-0.8 l 0,0 c 0.639,0 1.171,0.211 1.599,0.639 l 0,0 c 0.48,0.426 0.732,0.959 0.76,1.6 l 0,0 c 0.026,0.64 -0.174,1.172 -0.601,1.598 l 0,0 -17.112,18.553 c -0.48,0.48 -1.014,0.719 -1.6,0.719 l 0,0 -20.39,0 0,32.227 17.233,0 c 0.32,0 0.721,-0.027 1.203,-0.08 l 0,0 c 0.801,-0.107 1.844,-0.267 3.125,-0.48 l 0,0 c 1.069,-0.268 2.311,-0.707 3.728,-1.319 l 0,0 c 1.417,-0.614 2.739,-1.533 3.968,-2.76 l 0,0 c 2.725,-2.718 4.088,-6.531 4.088,-11.435 l 0,0 c 0,-5.97 -1.653,-10.343 -4.957,-13.113 l 0,0 c -0.428,-0.427 -0.694,-0.96 -0.8,-1.599 l 0,0 c -0.108,-0.64 0.052,-1.201 0.479,-1.68 l 0,0 c 0.427,-0.427 0.946,-0.68 1.56,-0.76 l 0,0 c 0.612,-0.08 1.185,0.093 1.719,0.52 l 0,0 c 2.066,1.811 3.623,3.919 4.671,6.317 l 0,0 c 1.256,2.878 1.886,6.317 1.886,10.315 l 0,0 c 0,6.131 -1.837,11.009 -5.508,14.635 l 0,0 c -1.542,1.491 -3.166,2.651 -4.869,3.478 l 0,0 c -1.702,0.827 -3.299,1.425 -4.788,1.8 l 0,0 c -1.49,0.371 -2.741,0.599 -3.752,0.679 l 0,0 c -1.01,0.08 -1.595,0.12 -1.755,0.12 l 0,0 -19.475,0 z"
         id="path40"
         inkscape:connector-curvature="0" />
    </clipPath>
    <clipPath
       clipPathUnits="userSpaceOnUse"
       id="clipPath60">
      <path
         d="M 282.899,148.637 259.949,93.22 c -0.267,-0.587 -0.267,-1.173 0,-1.759 l 0,0 c 0.266,-0.588 0.692,-1.014 1.279,-1.279 l 0,0 c 0.212,-0.107 0.505,-0.16 0.88,-0.16 l 0,0 c 0.905,0 1.625,0.451 2.159,1.359 l 0,0 20.711,50.299 20.551,-50.299 c 0.267,-0.588 0.681,-1 1.24,-1.24 l 0,0 c 0.559,-0.239 1.133,-0.226 1.719,0.041 l 0,0 c 0.586,0.265 1.012,0.691 1.28,1.279 l 0,0 c 0.266,0.586 0.266,1.172 0,1.759 l 0,0 -22.711,55.417 c -0.374,0.906 -1.067,1.359 -2.079,1.359 l 0,0 c -1.014,0 -1.707,-0.453 -2.079,-1.359 m -6.157,-37.824 c -0.64,0 -1.187,-0.228 -1.64,-0.68 l 0,0 c -0.454,-0.454 -0.679,-1 -0.679,-1.64 l 0,0 c 0,-0.64 0.225,-1.186 0.679,-1.64 l 0,0 c 0.453,-0.452 1,-0.678 1.64,-0.678 l 0,0 16.312,0 c 0.64,0 1.187,0.226 1.64,0.678 l 0,0 c 0.453,0.454 0.68,1 0.68,1.64 l 0,0 c 0,0.64 -0.227,1.186 -0.68,1.64 l 0,0 c -0.453,0.452 -1,0.68 -1.64,0.68 l 0,0 -16.312,0 z"
         id="path62"
         inkscape:connector-curvature="0" />
    </clipPath>
    <clipPath
       clipPathUnits="userSpaceOnUse"
       id="clipPath82">
      <path
         d="m 321.682,146.957 c -1.493,-1.067 -2.824,-2.292 -3.993,-3.679 l 0,0 c -1.17,-1.387 -2.173,-3.011 -3.011,-4.878 l 0,0 c -0.682,-1.545 -1.205,-3.145 -1.573,-4.798 l 0,0 c -0.366,-1.652 -0.628,-3.278 -0.785,-4.876 l 0,0 c -0.157,-1.6 -0.248,-3.147 -0.275,-4.639 l 0,0 c -0.025,-1.493 -0.038,-2.853 -0.038,-4.078 l 0,0 c 0,-1.119 0.013,-2.413 0.038,-3.878 l 0,0 c 0.027,-1.467 0.133,-3.013 0.315,-4.639 l 0,0 c 0.182,-1.626 0.458,-3.278 0.825,-4.958 l 0,0 c 0.367,-1.679 0.89,-3.318 1.571,-4.918 l 0,0 c 1.738,-3.626 4.073,-6.476 7.007,-8.556 l 0,0 c 3.411,-2.238 7.756,-3.359 13.034,-3.359 l 0,0 c 2.931,0 5.489,0.321 7.676,0.96 l 0,0 c 2.186,0.64 4.079,1.48 5.678,2.519 l 0,0 c 1.599,1.04 2.931,2.171 3.998,3.398 l 0,0 c 1.066,1.226 1.92,2.453 2.559,3.679 l 0,0 c 0.693,1.279 1.226,2.545 1.599,3.799 l 0,0 c 0.373,1.252 0.653,2.371 0.841,3.358 l 0,0 c 0.185,0.986 0.291,1.786 0.319,2.4 l 0,0 c 0.026,0.611 0.04,0.944 0.04,0.999 l 0,0 c 0,0.639 -0.213,1.171 -0.639,1.599 l 0,0 c -0.428,0.426 -0.959,0.64 -1.6,0.64 l 0,0 c -0.639,0 -1.199,-0.214 -1.679,-0.64 l 0,0 c -0.48,-0.428 -0.72,-0.96 -0.72,-1.599 l 0,0 c -0.054,-0.959 -0.147,-1.827 -0.28,-2.599 l 0,0 c -0.134,-0.774 -0.36,-1.667 -0.679,-2.68 l 0,0 c -0.32,-1.013 -0.748,-2.026 -1.28,-3.037 l 0,0 c -2.878,-5.438 -8.157,-8.158 -15.833,-8.158 l 0,0 c -7.891,0 -13.169,3.039 -15.833,9.117 l 0,0 c -0.588,1.385 -1.04,2.824 -1.36,4.317 l 0,0 c -0.32,1.492 -0.56,2.972 -0.719,4.439 l 0,0 c -0.161,1.466 -0.254,2.866 -0.281,4.199 l 0,0 c -0.027,1.332 -0.04,2.53 -0.04,3.598 l 0,0 c 0,3.09 0.16,6.17 0.48,9.236 l 0,0 c 0.32,3.065 1.093,5.823 2.319,8.277 l 0,0 c 1.226,2.45 3.051,4.424 5.478,5.916 l 0,0 c 2.425,1.493 5.744,2.24 9.956,2.24 l 0,0 c 5.864,0 10.341,-1.574 13.434,-4.718 l 0,0 c 1.972,-1.919 3.331,-4.399 4.078,-7.436 l 0,0 c 0.213,-1.228 0.372,-2.187 0.48,-2.88 l 0,0 c 0.052,-0.428 0.08,-0.799 0.08,-1.12 l 0,0 c 0,-0.693 0.24,-1.252 0.72,-1.678 l 0,0 c 0.48,-0.428 1.04,-0.64 1.679,-0.64 l 0,0 c 0.641,0 1.172,0.212 1.6,0.64 l 0,0 c 0.426,0.426 0.639,0.96 0.639,1.598 l 0,0 0,0.08 c 0,0.161 -0.04,0.733 -0.12,1.72 l 0,0 c -0.08,0.986 -0.307,2.2 -0.679,3.639 l 0,0 c -0.374,1.439 -0.96,2.984 -1.76,4.638 l 0,0 c -0.799,1.651 -1.919,3.224 -3.358,4.717 l 0,0 c -4.052,4.051 -9.65,6.078 -16.793,6.078 l 0,0 c -5.331,0 -9.703,-1.119 -13.115,-3.359"
         id="path84"
         inkscape:connector-curvature="0" />
    </clipPath>
    <clipPath
       clipPathUnits="userSpaceOnUse"
       id="clipPath104">
      <path
         d="m 368.781,149.996 c -0.639,0 -1.172,-0.218 -1.599,-0.651 l 0,0 c -0.428,-0.435 -0.639,-0.976 -0.639,-1.626 l 0,0 0,-14.195 c 0,-0.641 0.211,-1.188 0.639,-1.64 l 0,0 c 0.427,-0.454 0.96,-0.68 1.599,-0.68 l 0,0 c 0.64,0 1.186,0.226 1.64,0.68 l 0,0 c 0.453,0.452 0.68,0.999 0.68,1.64 l 0,0 0,11.834 31.106,0 c 0.64,0 1.172,0.23 1.6,0.691 l 0,0 c 0.426,0.461 0.64,1.016 0.64,1.67 l 0,0 c 0,0.65 -0.214,1.191 -0.64,1.626 l 0,0 c -0.428,0.433 -0.96,0.651 -1.6,0.651 l 0,0 -33.426,0 z m 0,-23.589 c -0.639,0 -1.172,-0.228 -1.599,-0.681 l 0,0 c -0.428,-0.455 -0.639,-1.003 -0.639,-1.644 l 0,0 0,-31.738 c 0,-0.641 0.211,-1.174 0.639,-1.601 l 0,0 c 0.427,-0.427 0.96,-0.641 1.599,-0.641 l 0,0 33.426,0 c 0.64,0 1.172,0.216 1.6,0.65 l 0,0 c 0.426,0.433 0.64,0.976 0.64,1.627 l 0,0 c 0,0.651 -0.214,1.208 -0.64,1.668 l 0,0 c -0.428,0.461 -0.96,0.692 -1.6,0.692 l 0,0 -31.106,0 0,27.028 23.03,0 c 0.64,0 1.186,0.232 1.639,0.692 l 0,0 c 0.452,0.461 0.68,0.99 0.68,1.587 l 0,0 c 0,0.651 -0.228,1.207 -0.68,1.668 l 0,0 c -0.453,0.461 -0.999,0.693 -1.639,0.693 l 0,0 -25.35,0 z"
         id="path106"
         inkscape:connector-curvature="0" />
    </clipPath>
    <clipPath
       clipPathUnits="userSpaceOnUse"
       id="clipPath126">
      <path
         d="m 262.566,251.203 c -0.08,-0.008 -0.158,-0.024 -0.239,-0.033 l 0,0 c -5.954,-0.671 -12.155,-3.509 -17.267,-8.427 l 0,0 -29.005,-27.908 c -5.027,-4.836 -8.282,-10.939 -9.168,-17.186 l 0,0 c -0.913,-6.433 0.778,-12.256 4.761,-16.397 l 0,0 c 3.553,-3.692 8.465,-5.492 13.749,-5.492 l 0,0 c 6.741,0 14.087,2.93 19.98,8.601 l 0,0 c 0.232,0.223 0.455,0.451 0.633,0.635 l 0,0 18.909,18.192 18.893,-18.176 c 0.223,-0.227 0.445,-0.453 0.677,-0.677 l 0,0 c 3.968,-3.818 8.594,-6.388 13.251,-7.663 l 0,0 c 2.014,-0.642 4.159,-0.979 6.377,-0.979 l 0,0 c 6.74,0 14.084,2.93 19.979,8.601 l 0,0 c 0.215,0.208 0.423,0.42 0.634,0.634 l 0,0 27.69,26.643 0.06,0.055 c 0.208,0.189 0.417,0.379 0.622,0.575 l 0,0 c 5.025,4.835 8.281,10.939 9.168,17.186 l 0,0 c 0.911,6.434 -0.78,12.257 -4.762,16.397 l 0,0 c -8.087,8.403 -23.215,7.006 -33.729,-3.109 l 0,0 -19.466,-18.729 -19.509,18.77 c -4.288,4.126 -9.343,6.775 -14.376,7.926 l 0,0 c -1.744,0.455 -3.574,0.686 -5.453,0.686 l 0,0 c -0.795,0 -1.599,-0.041 -2.409,-0.125 m -3.573,-36.607 -0.092,0.084 c -0.19,0.172 -0.38,0.344 -0.567,0.525 l 0,0 c -8.88,8.544 -10.807,21.001 -4.296,27.77 l 0,0 c 2.763,2.872 6.607,4.263 10.797,4.263 l 0,0 c 1.365,0 2.767,-0.151 4.18,-0.444 l 0,0 c 2.608,-0.621 4.957,-1.867 6.812,-3.795 l 0,0 c 3.086,-3.207 4.383,-7.815 3.653,-12.968 l 0,0 c -0.758,-5.342 -3.58,-10.598 -7.951,-14.802 l 0,0 c -0.185,-0.179 -0.376,-0.351 -0.566,-0.524 l 0,0 -6.042,-5.813 -5.928,5.704 z m 63.985,-16.972 c -0.886,6.246 -4.142,12.35 -9.169,17.185 l 0,0 -6.53,6.284 19.352,18.619 c 5.113,4.92 11.432,7.486 17.118,7.486 l 0,0 c 4.188,0 8.034,-1.394 10.796,-4.266 l 0,0 c 3.087,-3.207 4.385,-7.813 3.654,-12.968 l 0,0 c -0.757,-5.342 -3.581,-10.598 -7.95,-14.801 l 0,0 c -0.174,-0.168 -0.354,-0.331 -0.532,-0.494 l 0,0 -27.35,-26.309 c 0.858,2.832 1.079,5.967 0.611,9.264 M 214.61,184.103 c -3.087,3.209 -4.384,7.814 -3.654,12.968 l 0,0 c 0.758,5.343 3.581,10.598 7.949,14.802 l 0,0 28.121,27.055 c -2.621,-8.33 0.42,-18.953 8.457,-26.685 l 0,0 c 0.216,-0.208 0.435,-0.406 0.653,-0.606 l 0,0 1.431,1.478 -1.425,-1.482 5.814,-5.594 -18.842,-18.126 c -0.194,-0.198 -0.388,-0.396 -0.588,-0.59 l 0,0 c -5.112,-4.919 -11.433,-7.485 -17.119,-7.485 l 0,0 c -4.189,0 -8.034,1.393 -10.797,4.265 m 59.771,28.165 c 5.026,4.835 8.283,10.939 9.169,17.186 l 0,0 c 0.475,3.348 0.239,6.527 -0.652,9.392 l 0,0 18.451,-17.753 -6.574,-6.324 c -5.026,-4.837 -8.283,-10.941 -9.169,-17.187 l 0,0 c -0.461,-3.25 -0.255,-6.344 0.573,-9.145 l 0,0 -18.295,17.605 5.838,5.616 -1.425,1.482 1.432,-1.478 c 0.218,0.2 0.437,0.399 0.652,0.606 m 24.414,-31.639 c -2.067,0.698 -3.935,1.818 -5.464,3.407 l 0,0 c -3.087,3.209 -4.385,7.814 -3.654,12.969 l 0,0 c 0.757,5.341 3.58,10.599 7.948,14.801 l 0,0 6.688,6.434 6.646,-6.394 c 4.368,-4.202 7.191,-9.459 7.949,-14.799 l 0,0 c 0.731,-5.155 -0.567,-9.761 -3.654,-12.97 l 0,0 c -2.019,-2.096 -4.615,-3.401 -7.501,-3.955 l 0,0 c -0.092,-0.016 -0.182,-0.028 -0.273,-0.044 l 0,0 c -0.975,-0.169 -1.981,-0.253 -3.007,-0.253 l 0,0 c -1.846,0 -3.76,0.271 -5.678,0.804"
         id="path128"
         inkscape:connector-curvature="0" />
    </clipPath>
  </defs>
  <sodipodi:namedview
     id="base"
     pagecolor="#ffffff"
     bordercolor="#666666"
     borderopacity="1.0"
     inkscape:pageopacity="0.0"
     inkscape:pageshadow="2"
     inkscape:zoom="0.0875"
     inkscape:cx="1512.0791"
     inkscape:cy="-1987.8363"
     inkscape:document-units="px"
     inkscape:current-layer="layer1"
     showgrid="false"
     fit-margin-top="0"
     fit-margin-left="0"
     fit-margin-right="0"
     fit-margin-bottom="0"
     inkscape:window-width="1366"
     inkscape:window-height="734"
     inkscape:window-x="0"
     inkscape:window-y="16"
     inkscape:window-maximized="0" />
  <metadata
     id="metadata4411">
    <rdf:RDF>
      <cc:Work
         rdf:about="">
        <dc:format>image/svg+xml</dc:format>
        <dc:type
           rdf:resource="http://purl.org/dc/dcmitype/StillImage" />
        <dc:title></dc:title>
      </cc:Work>
    </rdf:RDF>
  </metadata>
  <g
     inkscape:label="Calque 1"
     inkscape:groupmode="layer"
     id="layer1"
     transform="translate(-23.937776,502.03515)">
    <g
       id="g5044"
       transform="matrix(6.5452454,0,0,6.5452454,4935.1495,-3677.0704)"
       style="fill:#000000">
      <g
         style="fill:#000000"
         transform="matrix(1.4385436,0,0,-1.4385436,-755.40847,705.28648)"
         id="g4328">
        <g
           style="fill:#000000"
           id="g12">
          <g
             style="fill:#000000"
             id="g14"
             clip-path="url(#clipPath16)">
            <g
               style="fill:#000000"
               id="g20">
              <g
                 style="fill:#000000"
                 id="g22">
                <path
                   d="m 163.351,149.996 c -0.64,0 -1.187,-0.232 -1.64,-0.692 l 0,0 c -0.454,-0.461 -0.679,-1.016 -0.679,-1.668 l 0,0 c 0,-0.598 0.225,-1.126 0.679,-1.587 l 0,0 c 0.453,-0.461 1,-0.691 1.64,-0.691 l 0,0 37.903,0 c 0.64,0 1.187,0.23 1.64,0.691 l 0,0 c 0.453,0.461 0.68,0.989 0.68,1.587 l 0,0 c 0,0.652 -0.227,1.207 -0.68,1.668 l 0,0 c -0.453,0.46 -1,0.692 -1.64,0.692 l 0,0 -37.903,0 z m 17.181,-8.675 c -0.419,-0.455 -0.628,-0.974 -0.628,-1.56 l 0,0 0,-47.42 c 0,-0.641 0.209,-1.187 0.628,-1.64 l 0,0 c 0.418,-0.454 0.968,-0.679 1.65,-0.679 l 0,0 c 0.629,0 1.166,0.225 1.612,0.679 l 0,0 c 0.444,0.453 0.668,0.999 0.668,1.64 l 0,0 0,47.42 c 0,0.586 -0.224,1.105 -0.668,1.56 l 0,0 c -0.446,0.451 -0.983,0.678 -1.612,0.678 l 0,0 c -0.682,0 -1.232,-0.227 -1.65,-0.678"
                   style="fill:#000000;stroke:none"
                   id="path32"
                   inkscape:connector-curvature="0" />
              </g>
            </g>
          </g>
        </g>
        <g
           style="fill:#000000"
           id="g34">
          <g
             style="fill:#000000"
             id="g36"
             clip-path="url(#clipPath38)">
            <g
               style="fill:#000000"
               id="g42">
              <g
                 style="fill:#000000"
                 id="g44">
                <path
                   d="m 214.045,149.996 c -0.639,0 -1.183,-0.227 -1.636,-0.68 l 0,0 c -0.453,-0.453 -0.679,-1 -0.679,-1.64 l 0,0 0,-55.415 c 0,-0.588 0.223,-1.107 0.667,-1.56 l 0,0 c 0.445,-0.454 0.982,-0.679 1.612,-0.679 l 0,0 c 0.576,0 1.1,0.225 1.572,0.679 l 0,0 c 0.471,0.453 0.708,0.972 0.708,1.56 l 0,0 0,16.232 19.272,0 16.472,-17.671 c 0.373,-0.535 0.906,-0.8 1.6,-0.8 l 0,0 c 0.639,0 1.171,0.211 1.599,0.639 l 0,0 c 0.48,0.426 0.732,0.959 0.76,1.6 l 0,0 c 0.026,0.64 -0.174,1.172 -0.601,1.598 l 0,0 -17.112,18.553 c -0.48,0.48 -1.014,0.719 -1.6,0.719 l 0,0 -20.39,0 0,32.227 17.233,0 c 0.32,0 0.721,-0.027 1.203,-0.08 l 0,0 c 0.801,-0.107 1.844,-0.267 3.125,-0.48 l 0,0 c 1.069,-0.268 2.311,-0.707 3.728,-1.319 l 0,0 c 1.417,-0.614 2.739,-1.533 3.968,-2.76 l 0,0 c 2.725,-2.718 4.088,-6.531 4.088,-11.435 l 0,0 c 0,-5.97 -1.653,-10.343 -4.957,-13.113 l 0,0 c -0.428,-0.427 -0.694,-0.96 -0.8,-1.599 l 0,0 c -0.108,-0.64 0.052,-1.201 0.479,-1.68 l 0,0 c 0.427,-0.427 0.946,-0.68 1.56,-0.76 l 0,0 c 0.612,-0.08 1.185,0.093 1.719,0.52 l 0,0 c 2.066,1.811 3.623,3.919 4.671,6.317 l 0,0 c 1.256,2.878 1.886,6.317 1.886,10.315 l 0,0 c 0,6.131 -1.837,11.009 -5.508,14.635 l 0,0 c -1.542,1.491 -3.166,2.651 -4.869,3.478 l 0,0 c -1.702,0.827 -3.299,1.425 -4.788,1.8 l 0,0 c -1.49,0.371 -2.741,0.599 -3.752,0.679 l 0,0 c -1.01,0.08 -1.595,0.12 -1.755,0.12 l 0,0 -19.475,0 z"
                   style="fill:#000000;stroke:none"
                   id="path54"
                   inkscape:connector-curvature="0" />
              </g>
            </g>
          </g>
        </g>
        <g
           style="fill:#000000"
           id="g56">
          <g
             style="fill:#000000"
             id="g58"
             clip-path="url(#clipPath60)">
            <g
               style="fill:#000000"
               id="g64">
              <g
                 style="fill:#000000"
                 id="g66">
                <path
                   d="M 282.899,148.637 259.949,93.22 c -0.267,-0.587 -0.267,-1.173 0,-1.759 l 0,0 c 0.266,-0.588 0.692,-1.014 1.279,-1.279 l 0,0 c 0.212,-0.107 0.505,-0.16 0.88,-0.16 l 0,0 c 0.905,0 1.625,0.451 2.159,1.359 l 0,0 20.711,50.299 20.551,-50.299 c 0.267,-0.588 0.681,-1 1.24,-1.24 l 0,0 c 0.559,-0.239 1.133,-0.226 1.719,0.041 l 0,0 c 0.586,0.265 1.012,0.691 1.28,1.279 l 0,0 c 0.266,0.586 0.266,1.172 0,1.759 l 0,0 -22.711,55.417 c -0.374,0.906 -1.067,1.359 -2.079,1.359 l 0,0 c -1.014,0 -1.707,-0.453 -2.079,-1.359 m -6.157,-37.824 c -0.64,0 -1.187,-0.228 -1.64,-0.68 l 0,0 c -0.454,-0.454 -0.679,-1 -0.679,-1.64 l 0,0 c 0,-0.64 0.225,-1.186 0.679,-1.64 l 0,0 c 0.453,-0.452 1,-0.678 1.64,-0.678 l 0,0 16.312,0 c 0.64,0 1.187,0.226 1.64,0.678 l 0,0 c 0.453,0.454 0.68,1 0.68,1.64 l 0,0 c 0,0.64 -0.227,1.186 -0.68,1.64 l 0,0 c -0.453,0.452 -1,0.68 -1.64,0.68 l 0,0 -16.312,0 z"
                   style="fill:#000000;stroke:none"
                   id="path76"
                   inkscape:connector-curvature="0" />
              </g>
            </g>
          </g>
        </g>
        <g
           style="fill:#000000"
           id="g78">
          <g
             style="fill:#000000"
             id="g80"
             clip-path="url(#clipPath82)">
            <g
               style="fill:#000000"
               id="g86">
              <g
                 style="fill:#000000"
                 id="g88">
                <path
                   d="m 321.682,146.957 c -1.493,-1.067 -2.824,-2.292 -3.993,-3.679 l 0,0 c -1.17,-1.387 -2.173,-3.011 -3.011,-4.878 l 0,0 c -0.682,-1.545 -1.205,-3.145 -1.573,-4.798 l 0,0 c -0.366,-1.652 -0.628,-3.278 -0.785,-4.876 l 0,0 c -0.157,-1.6 -0.248,-3.147 -0.275,-4.639 l 0,0 c -0.025,-1.493 -0.038,-2.853 -0.038,-4.078 l 0,0 c 0,-1.119 0.013,-2.413 0.038,-3.878 l 0,0 c 0.027,-1.467 0.133,-3.013 0.315,-4.639 l 0,0 c 0.182,-1.626 0.458,-3.278 0.825,-4.958 l 0,0 c 0.367,-1.679 0.89,-3.318 1.571,-4.918 l 0,0 c 1.738,-3.626 4.073,-6.476 7.007,-8.556 l 0,0 c 3.411,-2.238 7.756,-3.359 13.034,-3.359 l 0,0 c 2.931,0 5.489,0.321 7.676,0.96 l 0,0 c 2.186,0.64 4.079,1.48 5.678,2.519 l 0,0 c 1.599,1.04 2.931,2.171 3.998,3.398 l 0,0 c 1.066,1.226 1.92,2.453 2.559,3.679 l 0,0 c 0.693,1.279 1.226,2.545 1.599,3.799 l 0,0 c 0.373,1.252 0.653,2.371 0.841,3.358 l 0,0 c 0.185,0.986 0.291,1.786 0.319,2.4 l 0,0 c 0.026,0.611 0.04,0.944 0.04,0.999 l 0,0 c 0,0.639 -0.213,1.171 -0.639,1.599 l 0,0 c -0.428,0.426 -0.959,0.64 -1.6,0.64 l 0,0 c -0.639,0 -1.199,-0.214 -1.679,-0.64 l 0,0 c -0.48,-0.428 -0.72,-0.96 -0.72,-1.599 l 0,0 c -0.054,-0.959 -0.147,-1.827 -0.28,-2.599 l 0,0 c -0.134,-0.774 -0.36,-1.667 -0.679,-2.68 l 0,0 c -0.32,-1.013 -0.748,-2.026 -1.28,-3.037 l 0,0 c -2.878,-5.438 -8.157,-8.158 -15.833,-8.158 l 0,0 c -7.891,0 -13.169,3.039 -15.833,9.117 l 0,0 c -0.588,1.385 -1.04,2.824 -1.36,4.317 l 0,0 c -0.32,1.492 -0.56,2.972 -0.719,4.439 l 0,0 c -0.161,1.466 -0.254,2.866 -0.281,4.199 l 0,0 c -0.027,1.332 -0.04,2.53 -0.04,3.598 l 0,0 c 0,3.09 0.16,6.17 0.48,9.236 l 0,0 c 0.32,3.065 1.093,5.823 2.319,8.277 l 0,0 c 1.226,2.45 3.051,4.424 5.478,5.916 l 0,0 c 2.425,1.493 5.744,2.24 9.956,2.24 l 0,0 c 5.864,0 10.341,-1.574 13.434,-4.718 l 0,0 c 1.972,-1.919 3.331,-4.399 4.078,-7.436 l 0,0 c 0.213,-1.228 0.372,-2.187 0.48,-2.88 l 0,0 c 0.052,-0.428 0.08,-0.799 0.08,-1.12 l 0,0 c 0,-0.693 0.24,-1.252 0.72,-1.678 l 0,0 c 0.48,-0.428 1.04,-0.64 1.679,-0.64 l 0,0 c 0.641,0 1.172,0.212 1.6,0.64 l 0,0 c 0.426,0.426 0.639,0.96 0.639,1.598 l 0,0 0,0.08 c 0,0.161 -0.04,0.733 -0.12,1.72 l 0,0 c -0.08,0.986 -0.307,2.2 -0.679,3.639 l 0,0 c -0.374,1.439 -0.96,2.984 -1.76,4.638 l 0,0 c -0.799,1.651 -1.919,3.224 -3.358,4.717 l 0,0 c -4.052,4.051 -9.65,6.078 -16.793,6.078 l 0,0 c -5.331,0 -9.703,-1.119 -13.115,-3.359"
                   style="fill:#000000;stroke:none"
                   id="path98"
                   inkscape:connector-curvature="0" />
              </g>
            </g>
          </g>
        </g>
        <g
           style="fill:#000000"
           id="g100">
          <g
             style="fill:#000000"
             id="g102"
             clip-path="url(#clipPath104)">
            <g
               style="fill:#000000"
               id="g108">
              <g
                 style="fill:#000000"
                 id="g110">
                <path
                   d="m 368.781,149.996 c -0.639,0 -1.172,-0.218 -1.599,-0.651 l 0,0 c -0.428,-0.435 -0.639,-0.976 -0.639,-1.626 l 0,0 0,-14.195 c 0,-0.641 0.211,-1.188 0.639,-1.64 l 0,0 c 0.427,-0.454 0.96,-0.68 1.599,-0.68 l 0,0 c 0.64,0 1.186,0.226 1.64,0.68 l 0,0 c 0.453,0.452 0.68,0.999 0.68,1.64 l 0,0 0,11.834 31.106,0 c 0.64,0 1.172,0.23 1.6,0.691 l 0,0 c 0.426,0.461 0.64,1.016 0.64,1.67 l 0,0 c 0,0.65 -0.214,1.191 -0.64,1.626 l 0,0 c -0.428,0.433 -0.96,0.651 -1.6,0.651 l 0,0 -33.426,0 z m 0,-23.589 c -0.639,0 -1.172,-0.228 -1.599,-0.681 l 0,0 c -0.428,-0.455 -0.639,-1.003 -0.639,-1.644 l 0,0 0,-31.738 c 0,-0.641 0.211,-1.174 0.639,-1.601 l 0,0 c 0.427,-0.427 0.96,-0.641 1.599,-0.641 l 0,0 33.426,0 c 0.64,0 1.172,0.216 1.6,0.65 l 0,0 c 0.426,0.433 0.64,0.976 0.64,1.627 l 0,0 c 0,0.651 -0.214,1.208 -0.64,1.668 l 0,0 c -0.428,0.461 -0.96,0.692 -1.6,0.692 l 0,0 -31.106,0 0,27.028 23.03,0 c 0.64,0 1.186,0.232 1.639,0.692 l 0,0 c 0.452,0.461 0.68,0.99 0.68,1.587 l 0,0 c 0,0.651 -0.228,1.207 -0.68,1.668 l 0,0 c -0.453,0.461 -0.999,0.693 -1.639,0.693 l 0,0 -25.35,0 z"
                   style="fill:#000000;stroke:none"
                   id="path120"
                   inkscape:connector-curvature="0" />
              </g>
            </g>
          </g>
        </g>
      </g>
      <g
         style="fill:#000000"
         transform="matrix(1.25,0,0,-1.25,-1008.6545,799.25033)"
         id="g122">
        <g
           style="fill:#000000"
           clip-path="url(#clipPath126)"
           id="g124">
          <g
             style="fill:#000000"
             id="g130">
            <g
               style="fill:#000000"
               id="g132">
              <path
                 inkscape:connector-curvature="0"
                 id="path144"
                 style="fill:#000000;stroke:none"
                 d="m 262.566,251.203 c -0.08,-0.008 -0.158,-0.024 -0.239,-0.033 l 0,0 c -5.954,-0.671 -12.155,-3.509 -17.267,-8.427 l 0,0 -29.005,-27.908 c -5.027,-4.836 -8.282,-10.939 -9.168,-17.186 l 0,0 c -0.913,-6.433 0.778,-12.256 4.761,-16.397 l 0,0 c 3.553,-3.692 8.465,-5.492 13.749,-5.492 l 0,0 c 6.741,0 14.087,2.93 19.98,8.601 l 0,0 c 0.232,0.223 0.455,0.451 0.633,0.635 l 0,0 18.909,18.192 18.893,-18.176 c 0.223,-0.227 0.445,-0.453 0.677,-0.677 l 0,0 c 3.968,-3.818 8.594,-6.388 13.251,-7.663 l 0,0 c 2.014,-0.642 4.159,-0.979 6.377,-0.979 l 0,0 c 6.74,0 14.084,2.93 19.979,8.601 l 0,0 c 0.215,0.208 0.423,0.42 0.634,0.634 l 0,0 27.69,26.643 0.06,0.055 c 0.208,0.189 0.417,0.379 0.622,0.575 l 0,0 c 5.025,4.835 8.281,10.939 9.168,17.186 l 0,0 c 0.911,6.434 -0.78,12.257 -4.762,16.397 l 0,0 c -8.087,8.403 -23.215,7.006 -33.729,-3.109 l 0,0 -19.466,-18.729 -19.509,18.77 c -4.288,4.126 -9.343,6.775 -14.376,7.926 l 0,0 c -1.744,0.455 -3.574,0.686 -5.453,0.686 l 0,0 c -0.795,0 -1.599,-0.041 -2.409,-0.125 m -3.573,-36.607 -0.092,0.084 c -0.19,0.172 -0.38,0.344 -0.567,0.525 l 0,0 c -8.88,8.544 -10.807,21.001 -4.296,27.77 l 0,0 c 2.763,2.872 6.607,4.263 10.797,4.263 l 0,0 c 1.365,0 2.767,-0.151 4.18,-0.444 l 0,0 c 2.608,-0.621 4.957,-1.867 6.812,-3.795 l 0,0 c 3.086,-3.207 4.383,-7.815 3.653,-12.968 l 0,0 c -0.758,-5.342 -3.58,-10.598 -7.951,-14.802 l 0,0 c -0.185,-0.179 -0.376,-0.351 -0.566,-0.524 l 0,0 -6.042,-5.813 -5.928,5.704 z m 63.985,-16.972 c -0.886,6.246 -4.142,12.35 -9.169,17.185 l 0,0 -6.53,6.284 19.352,18.619 c 5.113,4.92 11.432,7.486 17.118,7.486 l 0,0 c 4.188,0 8.034,-1.394 10.796,-4.266 l 0,0 c 3.087,-3.207 4.385,-7.813 3.654,-12.968 l 0,0 c -0.757,-5.342 -3.581,-10.598 -7.95,-14.801 l 0,0 c -0.174,-0.168 -0.354,-0.331 -0.532,-0.494 l 0,0 -27.35,-26.309 c 0.858,2.832 1.079,5.967 0.611,9.264 M 214.61,184.103 c -3.087,3.209 -4.384,7.814 -3.654,12.968 l 0,0 c 0.758,5.343 3.581,10.598 7.949,14.802 l 0,0 28.121,27.055 c -2.621,-8.33 0.42,-18.953 8.457,-26.685 l 0,0 c 0.216,-0.208 0.435,-0.406 0.653,-0.606 l 0,0 1.431,1.478 -1.425,-1.482 5.814,-5.594 -18.842,-18.126 c -0.194,-0.198 -0.388,-0.396 -0.588,-0.59 l 0,0 c -5.112,-4.919 -11.433,-7.485 -17.119,-7.485 l 0,0 c -4.189,0 -8.034,1.393 -10.797,4.265 m 59.771,28.165 c 5.026,4.835 8.283,10.939 9.169,17.186 l 0,0 c 0.475,3.348 0.239,6.527 -0.652,9.392 l 0,0 18.451,-17.753 -6.574,-6.324 c -5.026,-4.837 -8.283,-10.941 -9.169,-17.187 l 0,0 c -0.461,-3.25 -0.255,-6.344 0.573,-9.145 l 0,0 -18.295,17.605 5.838,5.616 -1.425,1.482 1.432,-1.478 c 0.218,0.2 0.437,0.399 0.652,0.606 m 24.414,-31.639 c -2.067,0.698 -3.935,1.818 -5.464,3.407 l 0,0 c -3.087,3.209 -4.385,7.814 -3.654,12.969 l 0,0 c 0.757,5.341 3.58,10.599 7.948,14.801 l 0,0 6.688,6.434 6.646,-6.394 c 4.368,-4.202 7.191,-9.459 7.949,-14.799 l 0,0 c 0.731,-5.155 -0.567,-9.761 -3.654,-12.97 l 0,0 c -2.019,-2.096 -4.615,-3.401 -7.501,-3.955 l 0,0 c -0.092,-0.016 -0.182,-0.028 -0.273,-0.044 l 0,0 c -0.975,-0.169 -1.981,-0.253 -3.007,-0.253 l 0,0 c -1.846,0 -3.76,0.271 -5.678,0.804" />
            </g>
          </g>
        </g>
      </g>
    </g>
  </g>
</svg>
